<?xml version="1.0" ?><svg height="24" id="svg958" version="1.1" viewBox="0 0 6.3499999 6.3500002" width="24" xmlns="http://www.w3.org/2000/svg" xmlns:cc="http://creativecommons.org/ns#" xmlns:dc="http://purl.org/dc/elements/1.1/" xmlns:inkscape="http://www.inkscape.org/namespaces/inkscape" xmlns:rdf="http://www.w3.org/1999/02/22-rdf-syntax-ns#" xmlns:sodipodi="http://sodipodi.sourceforge.net/DTD/sodipodi-0.dtd" xmlns:svg="http://www.w3.org/2000/svg"><defs id="defs952"/><g id="layer1"><path d="m 2.116457,0.52916458 c -0.3605861,-1e-6 -0.3605857,0.52896202 0,0.52973502 h 0.2636165 v 0.68633 C 2.0686066,1.8723246 1.7940789,2.0710246 1.5768187,2.3214776 L 0.9405208,1.8966556 c -0.1619294,-0.08558 -0.2730084,-0.03918 -0.3675124,0.07443 -0.079871,0.120917 -0.047611,0.283575 0.072365,0.36487 l 0.6378486,0.424822 c -0.1431802,0.284948 -0.2253663,0.6052051 -0.2253663,0.9447369 0,1.165982 0.9515554,2.115321 2.117719,2.115321 1.166164,0 2.1156515,-0.949339 2.1156515,-2.115321 0,-0.3391738 -0.082703,-0.6589799 -0.2253663,-0.9437039 l 0.6373318,-0.425855 c 0.1206897,-0.08064 0.1538976,-0.243419 0.074433,-0.36487 C 5.6452813,1.8234806 5.528743,1.8281696 5.4101125,1.8966556 L 4.772264,2.3209606 C 4.5548816,2.0701986 4.2803853,1.8711576 3.9684921,1.7441956 v -0.685296 h 0.2636166 c 0.3680325,-7.91e-4 0.3763269,-0.52973502 0,-0.52973502 z M 2.9093741,1.0588996 h 0.5298175 v 0.547306 c -0.2646504,-0.0186 -0.2646504,-0.0186 -0.5298175,5.16e-4 z m 0.2662009,1.058436 c 0.8801084,0 1.5858342,0.708199 1.5858342,1.588171 0,0.8799711 -0.7057258,1.586103 -1.5858342,1.586103 -0.8801083,0 -1.5884185,-0.7061319 -1.5884185,-1.586103 0,-0.879972 0.7083101,-1.588171 1.5884185,-1.588171 z m -0.9831344,0.980398 0.7955016,0.7933099 c 0.049666,0.04993 0.1171942,0.07803 0.1876328,0.07804 h 1.0565337 c 0.3465314,-4.498e-4 0.3728439,-0.52962 0,-0.5292149 H 3.28464 L 2.5677065,2.7230426 C 2.3238217,2.4791576 1.9556224,2.8609156 2.1924406,3.0977336 Z" id="path3483" style="color:#000000;font-style:normal;font-variant:normal;font-weight:normal;font-stretch:normal;font-size:medium;line-height:normal;font-family:sans-serif;font-variant-ligatures:normal;font-variant-position:normal;font-variant-caps:normal;font-variant-numeric:normal;font-variant-alternates:normal;font-variant-east-asian:normal;font-feature-settings:normal;font-variation-settings:normal;text-indent:0;text-align:start;text-decoration:none;text-decoration-line:none;text-decoration-style:solid;text-decoration-color:#000000;letter-spacing:normal;word-spacing:normal;text-transform:none;writing-mode:lr-tb;direction:ltr;text-orientation:mixed;dominant-baseline:auto;baseline-shift:baseline;text-anchor:start;white-space:normal;shape-padding:0;shape-margin:0;inline-size:0;clip-rule:nonzero;display:inline;overflow:visible;visibility:visible;opacity:1;isolation:auto;mix-blend-mode:normal;color-interpolation:sRGB;color-interpolation-filters:linearRGB;solid-color:#000000;solid-opacity:1;vector-effect:none;fill:#000000;fill-opacity:1;fill-rule:nonzero;stroke:none;stroke-width:0.529259;stroke-linecap:butt;stroke-linejoin:round;stroke-miterlimit:4;stroke-dasharray:none;stroke-dashoffset:0;stroke-opacity:1;color-rendering:auto;image-rendering:auto;shape-rendering:auto;text-rendering:auto;enable-background:accumulate;stop-color:#000000;stop-opacity:1"/></g></svg>