<svg xmlns="http://www.w3.org/2000/svg" xmlns:xlink="http://www.w3.org/1999/xlink" version="1.1" style="" xml:space="preserve" width="138.3488370717614" height="136.2945730015532"><rect id="backgroundrect" width="100%" height="100%" x="0" y="0" fill="none" stroke="none" class="" style=""/><g class="currentLayer" style=""><title>Layer 1</title><g id="svg_1" class="selected" fill="#ffffff" fill-opacity="1"><path d="M71.3378480063119,31.368257948537522 c2.536969347257809,-10.775982591302157 11.83919028720311,-18.725477945541453 22.832724125320283,-18.725477945541453 l2.367838057440622,0 l-0.16913128981718742,-1.943209975480717 c-0.16913128981718742,-2.1198654277971456 -1.0147877389031246,-5.299663569492864 -4.228282245429682,-8.479461711188582 l-0.6765251592687487,-0.5299663569492866 l-0.8456564490859366,0.17665545231642893 c-14.376159634460919,2.649831784746432 -25.03143089294372,14.83905799458002 -26.5536125012984,29.67811598916004 c-32.642338934717145,1.7665545231642887 -55.982456929489,25.26172968124932 -55.982456929489,57.23636655052293 c0,17.312234327010025 6.9343828825046785,33.91784684475433 19.111835749342163,45.75376214995506 l1.0147877389031246,0.8832772615821445 h79.66083750389521 l1.0147877389031246,-0.8832772615821445 c12.177452866837484,-11.83591530520073 19.111835749342163,-28.44152782294504 19.111835749342163,-45.75376214995506 C127.99683009506965,56.453332177470415 104.31844952066342,32.78150156706894 71.3378480063119,31.368257948537522 zM105.33323725956652,128.1754458179405 H30.91546974000413 c-9.809614809396862,-10.069360782036442 -15.56007866318123,-23.67183061040146 -15.898341242815606,-37.980922248032186 H20.767592350972894 v6.712907188024294 c0,1.059932713898574 0.6765251592687487,1.7665545231642887 1.6913128981718728,1.7665545231642887 s1.6913128981718728,-0.7066218092657155 1.6913128981718728,-1.7665545231642887 v-6.712907188024294 h10.147877389031237 v6.712907188024294 c0,1.059932713898574 0.6765251592687487,1.7665545231642887 1.6913128981718728,1.7665545231642887 s1.6913128981718728,-0.7066218092657155 1.6913128981718728,-1.7665545231642887 v-6.712907188024294 h11.83919028720311 v6.712907188024294 c0,1.059932713898574 0.6765251592687487,1.7665545231642887 1.6913128981718728,1.7665545231642887 s1.6913128981718728,-0.7066218092657155 1.6913128981718728,-1.7665545231642887 v-6.712907188024294 h13.530503185374982 v12.542537114466445 c0,1.059932713898574 0.6765251592687487,1.7665545231642887 1.6913128981718728,1.7665545231642887 s1.6913128981718728,-0.7066218092657155 1.6913128981718728,-1.7665545231642887 v-12.542537114466445 h13.530503185374982 v6.712907188024294 c0,1.059932713898574 0.6765251592687487,1.7665545231642887 1.6913128981718728,1.7665545231642887 s1.6913128981718728,-0.7066218092657155 1.6913128981718728,-1.7665545231642887 v-6.712907188024294 h11.83919028720311 v6.712907188024294 c0,1.059932713898574 0.6765251592687487,1.7665545231642887 1.6913128981718728,1.7665545231642887 s1.6913128981718728,-0.7066218092657155 1.6913128981718728,-1.7665545231642887 v-6.712907188024294 h10.147877389031237 v6.712907188024294 c0,1.059932713898574 0.6765251592687487,1.7665545231642887 1.6913128981718728,1.7665545231642887 s1.6913128981718728,-0.7066218092657155 1.6913128981718728,-1.7665545231642887 v-6.712907188024294 h5.7504638537843675 C120.72418463293056,104.50361520753906 114.97372077914622,118.2827404882205 105.33323725956652,128.1754458179405 zM113.7898017504259,86.83806997589618 h-13.530503185374982 h-15.221816083546855 H68.12435349978533 H51.21122451806661 h-15.221816083546855 h-13.530503185374982 h-7.44177675195624 C15.86278494627447,58.573197605267566 38.01898391232601,38.43447604119468 68.12435349978533,38.43447604119468 s52.26156855351086,20.315377016389313 53.1072250025968,48.40359393470149 H113.7898017504259 z" id="svg_2" fill="#ffffff" fill-opacity="1"/><path d="M75.22786767210721,67.405970221089 h-14.376159634460919 c-0.6765251592687487,0 -1.183919028720312,0.3533109046328578 -1.5221816083546855,0.8832772615821445 c-0.3382625796343747,0.5299663569492866 -0.3382625796343747,1.2365881662150022 0,1.7665545231642887 l7.103514172321867,12.895848019099303 c0.3382625796343747,0.5299663569492866 0.8456564490859366,0.8832772615821445 1.5221816083546855,0.8832772615821445 s1.183919028720312,-0.3533109046328578 1.5221816083546855,-0.8832772615821445 l7.103514172321867,-12.895848019099303 c0.3382625796343747,-0.5299663569492866 0.3382625796343747,-1.2365881662150022 0,-1.7665545231642887 C76.41178670082752,67.75928112572186 75.90439283137594,67.405970221089 75.22786767210721,67.405970221089 z" id="svg_3" fill="#ffffff" fill-opacity="1"/></g></g></svg>