<?xml version="1.0" encoding="UTF-8"?>
<svg xmlns="http://www.w3.org/2000/svg" xmlns:xlink="http://www.w3.org/1999/xlink" width="20pt" height="20pt" viewBox="0 0 20 20" version="1.1">
<g id="surface1">
<path style=" stroke:none;fill-rule:nonzero;fill:rgb(0%,0%,0%);fill-opacity:1;" d="M 17 2.398438 L 14.398438 2.398438 L 14.398438 1.601562 C 14.398438 1.378906 14.21875 1.199219 14 1.199219 C 13.78125 1.199219 13.601562 1.378906 13.601562 1.601562 L 13.601562 2.398438 L 6.398438 2.398438 L 6.398438 1.601562 C 6.398438 1.378906 6.21875 1.199219 6 1.199219 C 5.78125 1.199219 5.601562 1.378906 5.601562 1.601562 L 5.601562 2.398438 L 3 2.398438 C 2.121094 2.398438 1.398438 3.121094 1.398438 4 L 1.398438 17.199219 C 1.398438 18.078125 2.121094 18.800781 3 18.800781 L 17 18.800781 C 17.878906 18.800781 18.601562 18.078125 18.601562 17.199219 L 18.601562 4 C 18.601562 3.121094 17.878906 2.398438 17 2.398438 Z M 3 3.199219 L 5.601562 3.199219 L 5.601562 4 C 5.601562 4.21875 5.78125 4.398438 6 4.398438 C 6.21875 4.398438 6.398438 4.21875 6.398438 4 L 6.398438 3.199219 L 13.601562 3.199219 L 13.601562 4 C 13.601562 4.21875 13.78125 4.398438 14 4.398438 C 14.21875 4.398438 14.398438 4.21875 14.398438 4 L 14.398438 3.199219 L 17 3.199219 C 17.441406 3.199219 17.800781 3.558594 17.800781 4 L 17.800781 5.601562 L 2.199219 5.601562 L 2.199219 4 C 2.199219 3.558594 2.558594 3.199219 3 3.199219 Z M 17 18 L 3 18 C 2.558594 18 2.199219 17.640625 2.199219 17.199219 L 2.199219 6.398438 L 17.800781 6.398438 L 17.800781 17.199219 C 17.800781 17.640625 17.441406 18 17 18 Z M 6.601562 13.199219 L 3.800781 13.199219 C 3.578125 13.199219 3.398438 13.378906 3.398438 13.601562 L 3.398438 16.398438 C 3.398438 16.621094 3.578125 16.800781 3.800781 16.800781 L 6.601562 16.800781 C 6.820312 16.800781 7 16.621094 7 16.398438 L 7 13.601562 C 7 13.378906 6.820312 13.199219 6.601562 13.199219 Z M 6.199219 16 L 4.199219 16 L 4.199219 14 L 6.199219 14 Z M 11.398438 13.199219 L 8.601562 13.199219 C 8.378906 13.199219 8.199219 13.378906 8.199219 13.601562 L 8.199219 16.398438 C 8.199219 16.621094 8.378906 16.800781 8.601562 16.800781 L 11.398438 16.800781 C 11.621094 16.800781 11.800781 16.621094 11.800781 16.398438 L 11.800781 13.601562 C 11.800781 13.378906 11.621094 13.199219 11.398438 13.199219 Z M 11 16 L 9 16 L 9 14 L 11 14 Z M 16.199219 13.199219 L 13.398438 13.199219 C 13.179688 13.199219 13 13.378906 13 13.601562 L 13 16.398438 C 13 16.621094 13.179688 16.800781 13.398438 16.800781 L 16.199219 16.800781 C 16.421875 16.800781 16.601562 16.621094 16.601562 16.398438 L 16.601562 13.601562 C 16.601562 13.378906 16.421875 13.199219 16.199219 13.199219 Z M 15.800781 16 L 13.800781 16 L 13.800781 14 L 15.800781 14 Z M 6.601562 8.398438 L 3.800781 8.398438 C 3.578125 8.398438 3.398438 8.578125 3.398438 8.800781 L 3.398438 11.601562 C 3.398438 11.820312 3.578125 12 3.800781 12 L 6.601562 12 C 6.820312 12 7 11.820312 7 11.601562 L 7 8.800781 C 7 8.578125 6.820312 8.398438 6.601562 8.398438 Z M 6.199219 11.199219 L 4.199219 11.199219 L 4.199219 9.199219 L 6.199219 9.199219 Z M 11.398438 8.398438 L 8.601562 8.398438 C 8.378906 8.398438 8.199219 8.578125 8.199219 8.800781 L 8.199219 11.601562 C 8.199219 11.820312 8.378906 12 8.601562 12 L 11.398438 12 C 11.621094 12 11.800781 11.820312 11.800781 11.601562 L 11.800781 8.800781 C 11.800781 8.578125 11.621094 8.398438 11.398438 8.398438 Z M 11 11.199219 L 9 11.199219 L 9 9.199219 L 11 9.199219 Z M 16.199219 8.398438 L 13.398438 8.398438 C 13.179688 8.398438 13 8.578125 13 8.800781 L 13 11.601562 C 13 11.820312 13.179688 12 13.398438 12 L 16.199219 12 C 16.421875 12 16.601562 11.820312 16.601562 11.601562 L 16.601562 8.800781 C 16.601562 8.578125 16.421875 8.398438 16.199219 8.398438 Z M 15.800781 11.199219 L 13.800781 11.199219 L 13.800781 9.199219 L 15.800781 9.199219 Z M 15.800781 11.199219 "/>
</g>
</svg>
