<?xml version="1.0" standalone="no"?>
<!DOCTYPE svg PUBLIC "-//W3C//DTD SVG 20010904//EN"
 "http://www.w3.org/TR/2001/REC-SVG-20010904/DTD/svg10.dtd">
<svg version="1.0" xmlns="http://www.w3.org/2000/svg"
 width="1280.000000pt" height="1025.000000pt" viewBox="0 0 1280.000000 1025.000000"
 preserveAspectRatio="xMidYMid meet">
<metadata>
Created by potrace 1.16, written by Peter Selinger 2001-2019
</metadata>
<g transform="translate(0.000000,1025.000000) scale(0.100000,-0.100000)"
fill="#A6A1A9" stroke="none">
<path d="M4160 9409 c-143 -37 -267 -115 -362 -226 -64 -75 -100 -140 -134
-238 -28 -79 -28 -85 -32 -352 l-4 -273 -156 0 c-170 0 -251 -13 -352 -53 -91
-37 -165 -85 -232 -152 -103 -102 -161 -214 -193 -371 -14 -71 -15 -388 -13
-3224 3 -2968 4 -3148 21 -3205 25 -86 89 -211 142 -277 82 -102 223 -192 370
-235 57 -17 207 -18 2848 -21 2552 -2 2791 -1 2823 14 53 25 77 73 72 144 -5
64 -26 98 -80 126 -23 12 -435 14 -2775 14 -2296 0 -2756 2 -2799 14 -161 43
-276 170 -304 337 -21 124 20 251 112 342 66 66 146 105 240 117 44 6 1328 10
3268 10 3151 0 3195 0 3227 20 93 56 83 212 -17 262 -33 17 -187 18 -2781 18
-2494 0 -2750 1 -2800 16 -74 22 -129 56 -182 113 -189 202 -135 507 111 628
l76 38 2870 5 c2846 5 2871 5 2911 25 28 14 47 33 63 65 l22 44 0 3086 0 3086
-22 44 c-14 27 -36 50 -58 62 -33 17 -146 18 -2920 17 -2826 0 -2887 0 -2960
-20z m5650 -2559 l0 -2279 -504 -3 c-494 -3 -505 -3 -533 -24 -100 -75 -97
-208 7 -262 44 -22 46 -22 537 -22 l493 0 0 -74 0 -75 -284 -3 c-269 -3 -286
-4 -312 -24 -71 -53 -91 -124 -55 -198 17 -33 33 -50 65 -65 40 -20 60 -21
314 -21 l272 0 0 -245 0 -245 -2733 0 c-1835 0 -2760 -3 -2816 -10 -92 -12
-214 -53 -279 -94 l-42 -26 0 2793 c0 3018 -3 2843 50 2948 43 84 126 153 229
191 43 15 253 17 2819 17 l2772 1 0 -2280z m-6200 -1739 l0 -2909 -172 -5
c-196 -5 -251 -17 -370 -77 l-78 -39 0 2778 c0 1792 4 2797 10 2830 14 74 53
148 108 204 98 101 170 126 365 126 l137 1 0 -2909z"/>
<path d="M4539 8970 c-24 -13 -44 -34 -58 -63 l-21 -43 0 -2644 0 -2644 21
-42 c15 -32 32 -48 65 -65 74 -36 145 -16 198 55 l21 27 0 2667 c0 2607 0
2668 -19 2699 -41 67 -135 91 -207 53z"/>
<path d="M5855 7581 c-76 -19 -115 -69 -115 -148 0 -61 29 -110 80 -135 33
-17 123 -18 1455 -18 1332 0 1422 1 1455 18 104 52 109 206 8 267 -33 20 -52
20 -1443 22 -775 0 -1423 -2 -1440 -6z"/>
<path d="M5815 7136 c-42 -18 -83 -69 -91 -112 -14 -77 37 -157 112 -175 59
-13 2829 -12 2879 2 107 29 148 156 78 240 -53 63 41 59 -1520 59 -1165 -1
-1434 -3 -1458 -14z"/>
<path d="M5812 6690 c-53 -32 -74 -75 -69 -143 3 -51 8 -62 40 -95 l37 -37
786 -3 c707 -2 789 -1 819 14 49 23 77 73 77 136 0 56 -18 89 -72 126 l-33 22
-776 0 c-757 0 -777 -1 -809 -20z"/>
<path d="M4213 2730 c-87 -52 -86 -189 0 -254 l28 -21 2789 0 2789 0 27 21
c49 36 68 70 68 121 -1 59 -25 108 -67 133 -32 20 -72 20 -2817 20 -2745 0
-2785 0 -2817 -20z"/>
<path d="M3284 1621 c-55 -34 -74 -67 -74 -132 0 -47 5 -63 26 -89 15 -17 39
-37 55 -45 24 -13 385 -15 2791 -15 2739 0 2763 0 2796 20 96 59 96 201 0 260
-33 20 -57 20 -2798 20 -2690 0 -2766 -1 -2796 -19z"/>
</g>
</svg>
