<svg width="226" height="46" viewBox="0 0 226 46" fill="none" xmlns="http://www.w3.org/2000/svg">
<g filter="url(#filter0_d)">
<path d="M12.496 29.504C9.496 29.504 7.168 28.268 5.512 25.796V23.852C6.16 25.292 7.096 26.42 8.32 27.236C9.568 28.052 11.056 28.46 12.784 28.46C13.984 28.46 15.088 28.196 16.096 27.668C17.128 27.14 17.944 26.396 18.544 25.436C19.144 24.476 19.444 23.372 19.444 22.124C19.444 20.996 19.252 20.024 18.868 19.208C18.484 18.392 17.848 17.612 16.96 16.868C16.072 16.1 14.788 15.2 13.108 14.168L11.956 13.448C10.9 12.8 10.048 12.224 9.4 11.72C8.752 11.216 8.188 10.628 7.708 9.956C7.084 9.02 6.772 7.94 6.772 6.716C6.772 5.084 7.3 3.812 8.356 2.9C9.412 1.988 10.756 1.532 12.388 1.532C14.596 1.532 16.348 2.348 17.644 3.98V5.816C17.092 4.808 16.336 4.016 15.376 3.44C14.416 2.864 13.36 2.576 12.208 2.576C11.008 2.576 10 2.948 9.184 3.692C8.368 4.436 7.96 5.432 7.96 6.68C7.96 7.904 8.332 8.96 9.076 9.848C9.844 10.712 11.128 11.66 12.928 12.692C15.136 13.988 16.852 15.164 18.076 16.22C18.94 17.012 19.564 17.888 19.948 18.848C20.356 19.808 20.56 20.876 20.56 22.052C20.56 23.54 20.212 24.848 19.516 25.976C18.82 27.104 17.86 27.98 16.636 28.604C15.412 29.204 14.032 29.504 12.496 29.504ZM30.1343 29.216C28.3583 29.216 26.8823 28.676 25.7063 27.596C24.5543 26.516 23.9783 25.028 23.9783 23.132V6.284H25.1303V12.8H30.0983V13.808H25.1303V23.132C25.1303 24.716 25.5983 25.964 26.5343 26.876C27.4943 27.764 28.6943 28.208 30.1343 28.208V29.216ZM40.2905 29.396C38.0105 29.396 36.2465 28.772 34.9985 27.524C33.7745 26.276 33.1625 24.512 33.1625 22.232V12.8H34.3145V22.232C34.3145 24.2 34.8305 25.724 35.8625 26.804C36.9185 27.86 38.3945 28.388 40.2905 28.388C41.4425 28.388 42.4985 28.136 43.4585 27.632C44.4185 27.104 45.1745 26.372 45.7265 25.436C46.2785 24.5 46.5545 23.432 46.5545 22.232V12.8H47.7065V29H46.5545V25.976C46.0025 26.984 45.1745 27.812 44.0705 28.46C42.9665 29.084 41.7065 29.396 40.2905 29.396ZM59.8844 29.396C58.3244 29.396 56.8844 29.012 55.5644 28.244C54.2684 27.476 53.2364 26.444 52.4684 25.148C51.7004 23.852 51.3164 22.436 51.3164 20.9C51.3164 19.364 51.7004 17.948 52.4684 16.652C53.2364 15.356 54.2684 14.324 55.5644 13.556C56.8844 12.788 58.3244 12.404 59.8844 12.404C61.3964 12.404 62.8364 12.812 64.2044 13.628C65.5724 14.42 66.5804 15.464 67.2284 16.76V2H68.3804V29H67.2284V25.076C66.5084 26.372 65.4644 27.416 64.0964 28.208C62.7524 29 61.3484 29.396 59.8844 29.396ZM59.8484 28.388C61.1684 28.388 62.3924 28.052 63.5204 27.38C64.6724 26.684 65.5844 25.772 66.2564 24.644C66.9524 23.492 67.3004 22.256 67.3004 20.936C67.3004 19.616 66.9524 18.38 66.2564 17.228C65.5844 16.076 64.6724 15.152 63.5204 14.456C62.3924 13.76 61.1684 13.412 59.8484 13.412C58.5284 13.412 57.3044 13.76 56.1764 14.456C55.0484 15.128 54.1484 16.04 53.4764 17.192C52.8044 18.344 52.4684 19.58 52.4684 20.9C52.4684 22.244 52.7924 23.492 53.4404 24.644C54.1124 25.772 55.0124 26.684 56.1404 27.38C57.2924 28.052 58.5284 28.388 59.8484 28.388ZM80.8083 28.424C82.0563 28.424 83.2443 28.1 84.3723 27.452C85.5003 26.804 86.4363 25.916 87.1803 24.788V26.624C86.2923 27.608 85.3203 28.328 84.2643 28.784C83.2083 29.216 82.0083 29.432 80.6643 29.432C79.1763 29.432 77.7723 29.036 76.4523 28.244C75.1563 27.452 74.1123 26.396 73.3203 25.076C72.5523 23.756 72.1683 22.352 72.1683 20.864C72.1683 19.256 72.5523 17.816 73.3203 16.544C74.0883 15.248 75.1323 14.24 76.4523 13.52C77.7963 12.8 79.2843 12.44 80.9163 12.44C83.4123 12.44 85.5363 13.424 87.2883 15.392L75.9843 26.552C76.7763 27.2 77.5443 27.68 78.2883 27.992C79.0323 28.28 79.8723 28.424 80.8083 28.424ZM73.3203 20.756C73.3203 22.748 73.9803 24.452 75.3003 25.868L85.8483 15.392C85.0563 14.696 84.2883 14.204 83.5443 13.916C82.8003 13.604 81.9123 13.448 80.8803 13.448C79.4163 13.448 78.1083 13.772 76.9563 14.42C75.8283 15.044 74.9403 15.908 74.2923 17.012C73.6443 18.116 73.3203 19.364 73.3203 20.756ZM90.8891 12.8H92.0411V16.4C92.5691 15.2 93.4691 14.24 94.7411 13.52C96.0131 12.776 97.4171 12.404 98.9531 12.404C100.945 12.404 102.517 13.04 103.669 14.312C104.845 15.56 105.433 17.312 105.433 19.568V29H104.281V19.568C104.281 17.624 103.801 16.112 102.841 15.032C101.905 13.952 100.585 13.412 98.8811 13.412C97.6331 13.412 96.4811 13.7 95.4251 14.276C94.3931 14.828 93.5651 15.596 92.9411 16.58C92.3411 17.564 92.0411 18.68 92.0411 19.928V29H90.8891V12.8ZM115.775 29.216C113.999 29.216 112.523 28.676 111.347 27.596C110.195 26.516 109.619 25.028 109.619 23.132V6.284H110.771V12.8H115.739V13.808H110.771V23.132C110.771 24.716 111.239 25.964 112.175 26.876C113.135 27.764 114.335 28.208 115.775 28.208V29.216ZM126.713 2H127.865V16.148C128.369 15.068 129.221 14.18 130.421 13.484C131.645 12.764 132.881 12.404 134.129 12.404C136.409 12.404 138.161 13.028 139.385 14.276C140.633 15.524 141.257 17.288 141.257 19.568V29H140.105V19.568C140.105 17.6 139.577 16.088 138.521 15.032C137.489 13.952 136.025 13.412 134.129 13.412C132.977 13.412 131.921 13.688 130.961 14.24C130.001 14.768 129.245 15.512 128.693 16.472C128.141 17.408 127.865 18.44 127.865 19.568V29H126.713V2ZM153.687 28.424C154.935 28.424 156.123 28.1 157.251 27.452C158.379 26.804 159.315 25.916 160.059 24.788V26.624C159.171 27.608 158.199 28.328 157.143 28.784C156.087 29.216 154.887 29.432 153.543 29.432C152.055 29.432 150.651 29.036 149.331 28.244C148.035 27.452 146.991 26.396 146.199 25.076C145.431 23.756 145.047 22.352 145.047 20.864C145.047 19.256 145.431 17.816 146.199 16.544C146.967 15.248 148.011 14.24 149.331 13.52C150.675 12.8 152.163 12.44 153.795 12.44C156.291 12.44 158.415 13.424 160.167 15.392L148.863 26.552C149.655 27.2 150.423 27.68 151.167 27.992C151.911 28.28 152.751 28.424 153.687 28.424ZM146.199 20.756C146.199 22.748 146.859 24.452 148.179 25.868L158.727 15.392C157.935 14.696 157.167 14.204 156.423 13.916C155.679 13.604 154.791 13.448 153.759 13.448C152.295 13.448 150.987 13.772 149.835 14.42C148.707 15.044 147.819 15.908 147.171 17.012C146.523 18.116 146.199 19.364 146.199 20.756ZM169.924 29.324C168.796 29.324 167.764 29.072 166.828 28.568C165.892 28.04 165.148 27.308 164.596 26.372C164.044 25.436 163.768 24.392 163.768 23.24V2H164.92V23.24C164.92 24.2 165.136 25.064 165.568 25.832C166.024 26.6 166.636 27.212 167.404 27.668C168.172 28.1 169.012 28.316 169.924 28.316V29.324ZM173.647 12.8H174.799V16.76C175.447 15.464 176.455 14.42 177.823 13.628C179.191 12.812 180.631 12.404 182.143 12.404C183.703 12.404 185.131 12.788 186.427 13.556C187.747 14.324 188.791 15.356 189.559 16.652C190.327 17.948 190.711 19.364 190.711 20.9C190.711 22.436 190.327 23.852 189.559 25.148C188.791 26.444 187.747 27.476 186.427 28.244C185.131 29.012 183.703 29.396 182.143 29.396C180.679 29.396 179.263 29 177.895 28.208C176.551 27.416 175.519 26.372 174.799 25.076V36.2H173.647V12.8ZM182.215 28.388C183.535 28.388 184.759 28.052 185.887 27.38C187.015 26.684 187.903 25.772 188.551 24.644C189.223 23.492 189.559 22.244 189.559 20.9C189.559 19.58 189.223 18.344 188.551 17.192C187.879 16.04 186.979 15.128 185.851 14.456C184.723 13.76 183.499 13.412 182.179 13.412C180.859 13.412 179.623 13.76 178.471 14.456C177.343 15.152 176.431 16.076 175.735 17.228C175.063 18.38 174.727 19.616 174.727 20.936C174.727 22.256 175.063 23.492 175.735 24.644C176.431 25.772 177.355 26.684 178.507 27.38C179.659 28.052 180.895 28.388 182.215 28.388ZM202.203 28.424C203.451 28.424 204.639 28.1 205.767 27.452C206.895 26.804 207.831 25.916 208.575 24.788V26.624C207.687 27.608 206.715 28.328 205.659 28.784C204.603 29.216 203.403 29.432 202.059 29.432C200.571 29.432 199.167 29.036 197.847 28.244C196.551 27.452 195.507 26.396 194.715 25.076C193.947 23.756 193.563 22.352 193.563 20.864C193.563 19.256 193.947 17.816 194.715 16.544C195.483 15.248 196.527 14.24 197.847 13.52C199.191 12.8 200.679 12.44 202.311 12.44C204.807 12.44 206.931 13.424 208.683 15.392L197.379 26.552C198.171 27.2 198.939 27.68 199.683 27.992C200.427 28.28 201.267 28.424 202.203 28.424ZM194.715 20.756C194.715 22.748 195.375 24.452 196.695 25.868L207.243 15.392C206.451 14.696 205.683 14.204 204.939 13.916C204.195 13.604 203.307 13.448 202.275 13.448C200.811 13.448 199.503 13.772 198.351 14.42C197.223 15.044 196.335 15.908 195.687 17.012C195.039 18.116 194.715 19.364 194.715 20.756ZM212.284 12.8H213.436V16.544C213.916 15.368 214.612 14.444 215.524 13.772C216.46 13.1 217.516 12.764 218.692 12.764C219.436 12.764 220.192 12.92 220.96 13.232V14.564C220.264 14.036 219.484 13.772 218.62 13.772C217.756 13.772 216.916 14.036 216.1 14.564C215.308 15.092 214.66 15.8 214.156 16.688C213.676 17.576 213.436 18.524 213.436 19.532V29H212.284V12.8Z" fill="#473F49"/>
<path d="M5.512 25.796H4.512V26.1L4.68119 26.3526L5.512 25.796ZM5.512 23.852L6.42392 23.4416L4.512 23.852H5.512ZM8.32 27.236L7.76528 28.0681L7.77275 28.073L8.32 27.236ZM16.096 27.668L15.6405 26.7777L15.632 26.7822L16.096 27.668ZM18.544 25.436L19.392 25.966L19.392 25.966L18.544 25.436ZM16.96 16.868L16.3058 17.6244L16.3118 17.6295L16.3178 17.6345L16.96 16.868ZM13.108 14.168L12.578 15.016L12.5846 15.0201L13.108 14.168ZM11.956 13.448L12.486 12.6L12.479 12.5957L11.956 13.448ZM9.4 11.72L8.78606 12.5094L8.78606 12.5094L9.4 11.72ZM7.708 9.956L6.87595 10.5107L6.88489 10.5241L6.89427 10.5372L7.708 9.956ZM17.644 3.98H18.644V3.63124L18.4271 3.35812L17.644 3.98ZM17.644 5.816L16.7669 6.29631L18.644 5.816H17.644ZM9.184 3.692L9.85775 4.43096L9.85775 4.43096L9.184 3.692ZM9.076 9.848L8.30948 10.4902L8.31887 10.5014L8.32859 10.5124L9.076 9.848ZM12.928 12.692L13.4342 11.8295L13.4254 11.8245L12.928 12.692ZM18.076 16.22L18.7517 15.4828L18.7406 15.4727L18.7292 15.4628L18.076 16.22ZM19.948 18.848L19.0195 19.2194L19.0235 19.2293L19.0277 19.2391L19.948 18.848ZM19.516 25.976L20.367 26.5011L20.367 26.5011L19.516 25.976ZM16.636 28.604L17.0762 29.5019L17.0832 29.4985L17.0902 29.4949L16.636 28.604ZM12.496 28.504C9.82624 28.504 7.81132 27.4316 6.34281 25.2394L4.68119 26.3526C6.52468 29.1044 9.16576 30.504 12.496 30.504V28.504ZM6.512 25.796V23.852H4.512V25.796H6.512ZM4.60008 24.2624C5.31928 25.8606 6.37343 27.1401 7.7653 28.0681L8.8747 26.4039C7.81857 25.6999 7.00072 24.7234 6.42392 23.4416L4.60008 24.2624ZM7.77275 28.073C9.20803 29.0114 10.8932 29.46 12.784 29.46V27.46C11.2188 27.46 9.92797 27.0926 8.86725 26.399L7.77275 28.073ZM12.784 29.46C14.1365 29.46 15.401 29.1609 16.56 28.5538L15.632 26.7822C14.775 27.2311 13.8315 27.46 12.784 27.46V29.46ZM16.5515 28.5582C17.7404 27.9499 18.6938 27.0832 19.392 25.966L17.696 24.906C17.1942 25.7088 16.5156 26.3301 15.6405 26.7778L16.5515 28.5582ZM19.392 25.966C20.1013 24.831 20.444 23.5396 20.444 22.124H18.444C18.444 23.2044 18.1867 24.121 17.696 24.906L19.392 25.966ZM20.444 22.124C20.444 20.8847 20.2332 19.7605 19.7728 18.7822L17.9632 19.6338C18.2708 20.2875 18.444 21.1073 18.444 22.124H20.444ZM19.7728 18.7822C19.3121 17.8032 18.5709 16.9131 17.6022 16.1015L16.3178 17.6345C17.1251 18.3109 17.6559 18.9808 17.9632 19.6338L19.7728 18.7822ZM17.6142 16.1116C16.667 15.2925 15.3311 14.36 13.6314 13.3159L12.5846 15.0201C14.245 16.04 15.477 16.9075 16.3058 17.6244L17.6142 16.1116ZM13.638 13.32L12.486 12.6L11.426 14.296L12.578 15.016L13.638 13.32ZM12.479 12.5957C11.4404 11.9583 10.6222 11.4037 10.0139 10.9306L8.78606 12.5094C9.47383 13.0443 10.3596 13.6417 11.433 14.3003L12.479 12.5957ZM10.0139 10.9306C9.44271 10.4864 8.94589 9.96857 8.52173 9.37476L6.89427 10.5372C7.43011 11.2874 8.06129 11.9456 8.78606 12.5094L10.0139 10.9306ZM8.54005 9.4013C8.03522 8.64405 7.772 7.76074 7.772 6.716H5.772C5.772 8.11926 6.13278 9.39594 6.87595 10.5107L8.54005 9.4013ZM7.772 6.716C7.772 5.32013 8.2117 4.34593 9.00962 3.65682L7.70238 2.14318C6.3883 3.27807 5.772 4.84786 5.772 6.716H7.772ZM9.00962 3.65682C9.8539 2.92767 10.953 2.532 12.388 2.532V0.532C10.559 0.532 8.9701 1.04833 7.70238 2.14318L9.00962 3.65682ZM12.388 2.532C14.3119 2.532 15.7673 3.22471 16.8609 4.60188L18.4271 3.35812C16.9288 1.47129 14.8801 0.532 12.388 0.532V2.532ZM16.644 3.98V5.816H18.644V3.98H16.644ZM18.5211 5.33568C17.8862 4.17633 17.0069 3.25233 15.8905 2.58251L14.8615 4.29749C15.6651 4.77967 16.2978 5.43966 16.7669 6.29631L18.5211 5.33568ZM15.8905 2.58251C14.7704 1.91046 13.5357 1.576 12.208 1.576V3.576C13.1843 3.576 14.0616 3.81754 14.8615 4.29749L15.8905 2.58251ZM12.208 1.576C10.7822 1.576 9.5271 2.02591 8.51025 2.95304L9.85775 4.43096C10.4729 3.87009 11.2338 3.576 12.208 3.576V1.576ZM8.51025 2.95304C7.45827 3.9122 6.96 5.19127 6.96 6.68H8.96C8.96 5.67273 9.27773 4.9598 9.85775 4.43096L8.51025 2.95304ZM6.96 6.68C6.96 8.12447 7.40567 9.41148 8.30948 10.4902L9.84252 9.20578C9.25833 8.50852 8.96 7.68353 8.96 6.68H6.96ZM8.32859 10.5124C9.20411 11.4973 10.5989 12.5094 12.4306 13.5595L13.4254 11.8245C11.6571 10.8106 10.4839 9.92668 9.82341 9.18364L8.32859 10.5124ZM12.4218 13.5544C14.6041 14.8353 16.2629 15.9765 17.4228 16.9772L18.7292 15.4628C17.4411 14.3515 15.6679 13.1407 13.4342 11.8296L12.4218 13.5544ZM17.4003 16.9572C18.1685 17.6613 18.6983 18.4163 19.0195 19.2194L20.8765 18.4766C20.4297 17.3597 19.7115 16.3627 18.7517 15.4828L17.4003 16.9572ZM19.0277 19.2391C19.3768 20.0606 19.56 20.9933 19.56 22.052H21.56C21.56 20.7587 21.3352 19.5554 20.8683 18.4569L19.0277 19.2391ZM19.56 22.052C19.56 23.3779 19.252 24.4995 18.665 25.4509L20.367 26.5011C21.172 25.1965 21.56 23.7021 21.56 22.052H19.56ZM18.665 25.4509C18.0688 26.417 17.2488 27.1692 16.1818 27.7131L17.0902 29.4949C18.4712 28.7908 19.5712 27.791 20.367 26.5011L18.665 25.4509ZM16.1958 27.7061C15.1253 28.2308 13.8989 28.504 12.496 28.504V30.504C14.1651 30.504 15.6987 30.1772 17.0762 29.5019L16.1958 27.7061ZM30.1343 29.216V30.216H31.1343V29.216H30.1343ZM25.7063 27.596L25.0223 28.3256L25.0299 28.3325L25.7063 27.596ZM23.9783 6.284V5.284H22.9783V6.284H23.9783ZM25.1303 6.284H26.1303V5.284H25.1303V6.284ZM25.1303 12.8H24.1303V13.8H25.1303V12.8ZM30.0983 12.8H31.0983V11.8H30.0983V12.8ZM30.0983 13.808V14.808H31.0983V13.808H30.0983ZM25.1303 13.808V12.808H24.1303V13.808H25.1303ZM26.5343 26.876L25.8364 27.5922L25.8457 27.6013L25.8553 27.6101L26.5343 26.876ZM30.1343 28.208H31.1343V27.208H30.1343V28.208ZM30.1343 28.216C28.5784 28.216 27.353 27.7505 26.3827 26.8595L25.0299 28.3325C26.4117 29.6015 28.1382 30.216 30.1343 30.216V28.216ZM26.3903 26.8665C25.4798 26.013 24.9783 24.8116 24.9783 23.132H22.9783C22.9783 25.2444 23.6288 27.019 25.0224 28.3255L26.3903 26.8665ZM24.9783 23.132V6.284H22.9783V23.132H24.9783ZM23.9783 7.284H25.1303V5.284H23.9783V7.284ZM24.1303 6.284V12.8H26.1303V6.284H24.1303ZM25.1303 13.8H30.0983V11.8H25.1303V13.8ZM29.0983 12.8V13.808H31.0983V12.8H29.0983ZM30.0983 12.808H25.1303V14.808H30.0983V12.808ZM24.1303 13.808V23.132H26.1303V13.808H24.1303ZM24.1303 23.132C24.1303 24.9244 24.6674 26.4531 25.8364 27.5922L27.2322 26.1598C26.5292 25.4749 26.1303 24.5076 26.1303 23.132H24.1303ZM25.8553 27.6101C27.0194 28.6869 28.4702 29.208 30.1343 29.208V27.208C28.9184 27.208 27.9692 26.8411 27.2134 26.1419L25.8553 27.6101ZM29.1343 28.208V29.216H31.1343V28.208H29.1343ZM34.9985 27.524L34.2846 28.2242L34.2914 28.2311L34.9985 27.524ZM33.1625 12.8V11.8H32.1625V12.8H33.1625ZM34.3145 12.8H35.3145V11.8H34.3145V12.8ZM35.8625 26.804L35.1395 27.4949L35.1474 27.5031L35.1554 27.5111L35.8625 26.804ZM43.4585 27.632L43.9234 28.5174L43.932 28.5129L43.9405 28.5082L43.4585 27.632ZM46.5545 12.8V11.8H45.5545V12.8H46.5545ZM47.7065 12.8H48.7065V11.8H47.7065V12.8ZM47.7065 29V30H48.7065V29H47.7065ZM46.5545 29H45.5545V30H46.5545V29ZM46.5545 25.976H47.5545L45.6774 25.4957L46.5545 25.976ZM44.0705 28.46L44.5626 29.3306L44.5697 29.3265L44.5767 29.3224L44.0705 28.46ZM40.2905 28.396C38.1949 28.396 36.7158 27.827 35.7056 26.8169L34.2914 28.2311C35.7773 29.717 37.8262 30.396 40.2905 30.396V28.396ZM35.7125 26.8238C34.7226 25.8145 34.1625 24.3329 34.1625 22.232H32.1625C32.1625 24.6911 32.8265 26.7375 34.2846 28.2242L35.7125 26.8238ZM34.1625 22.232V12.8H32.1625V22.232H34.1625ZM33.1625 13.8H34.3145V11.8H33.1625V13.8ZM33.3145 12.8V22.232H35.3145V12.8H33.3145ZM33.3145 22.232C33.3145 24.3732 33.879 26.1757 35.1395 27.4949L36.5855 26.1131C35.782 25.2723 35.3145 24.0268 35.3145 22.232H33.3145ZM35.1554 27.5111C36.4461 28.8018 38.2044 29.388 40.2905 29.388V27.388C38.5846 27.388 37.3909 26.9182 36.5696 26.0969L35.1554 27.5111ZM40.2905 29.388C41.5941 29.388 42.811 29.1014 43.9234 28.5174L42.9937 26.7466C42.186 27.1706 41.291 27.388 40.2905 27.388V29.388ZM43.9405 28.5082C45.0563 27.8945 45.944 27.0359 46.5879 25.944L44.8652 24.928C44.4051 25.7081 43.7808 26.3135 42.9766 26.7558L43.9405 28.5082ZM46.5879 25.944C47.2399 24.8384 47.5545 23.5915 47.5545 22.232H45.5545C45.5545 23.2725 45.3171 24.1616 44.8652 24.928L46.5879 25.944ZM47.5545 22.232V12.8H45.5545V22.232H47.5545ZM46.5545 13.8H47.7065V11.8H46.5545V13.8ZM46.7065 12.8V29H48.7065V12.8H46.7065ZM47.7065 28H46.5545V30H47.7065V28ZM47.5545 29V25.976H45.5545V29H47.5545ZM45.6774 25.4957C45.2219 26.3276 44.5307 27.0304 43.5643 27.5976L44.5767 29.3224C45.8184 28.5936 46.7832 27.6404 47.4316 26.4563L45.6774 25.4957ZM43.5785 27.5894C42.6415 28.119 41.5546 28.396 40.2905 28.396V30.396C41.8584 30.396 43.2916 30.049 44.5626 29.3306L43.5785 27.5894ZM55.5644 28.244L55.0546 29.1043L55.0615 29.1083L55.5644 28.244ZM52.4684 25.148L53.3287 24.6382L53.3287 24.6382L52.4684 25.148ZM52.4684 16.652L51.6081 16.1422L51.6081 16.1422L52.4684 16.652ZM55.5644 13.556L55.0615 12.6916L55.0546 12.6957L55.5644 13.556ZM64.2044 13.628L63.6921 14.4869L63.7033 14.4934L64.2044 13.628ZM67.2284 16.76L66.3339 17.2072L68.2284 16.76H67.2284ZM67.2284 2V0.999998H66.2284V2H67.2284ZM68.3804 2H69.3804V0.999998H68.3804V2ZM68.3804 29V30H69.3804V29H68.3804ZM67.2284 29H66.2284V30H67.2284V29ZM67.2284 25.076H68.2284V21.2169L66.3542 24.5904L67.2284 25.076ZM64.0964 28.208L63.5953 27.3425L63.5887 27.3465L64.0964 28.208ZM63.5204 27.38L64.0322 28.2391L64.0375 28.2359L63.5204 27.38ZM66.2564 24.644L65.4004 24.1269L65.3973 24.1322L66.2564 24.644ZM66.2564 17.228L65.3926 17.7319L65.3965 17.7385L65.4005 17.7451L66.2564 17.228ZM63.5204 14.456L62.9952 15.3071L63.0033 15.3119L63.5204 14.456ZM56.1764 14.456L56.6882 15.3151L56.6949 15.3111L56.7015 15.307L56.1764 14.456ZM53.4404 24.644L52.5688 25.1343L52.5749 25.1451L52.5813 25.1558L53.4404 24.644ZM56.1404 27.38L55.6153 28.231L55.6258 28.2375L55.6365 28.2438L56.1404 27.38ZM59.8844 28.396C58.4971 28.396 57.2312 28.0568 56.0673 27.3797L55.0615 29.1083C56.5376 29.9672 58.1517 30.396 59.8844 30.396V28.396ZM56.0742 27.3837C54.9226 26.7013 54.0111 25.7898 53.3287 24.6382L51.6081 25.6578C52.4616 27.0982 53.6142 28.2507 55.0546 29.1043L56.0742 27.3837ZM53.3287 24.6382C52.654 23.4997 52.3164 22.2603 52.3164 20.9H50.3164C50.3164 22.6117 50.7468 24.2043 51.6081 25.6578L53.3287 24.6382ZM52.3164 20.9C52.3164 19.5397 52.654 18.3003 53.3287 17.1618L51.6081 16.1422C50.7468 17.5957 50.3164 19.1883 50.3164 20.9H52.3164ZM53.3287 17.1618C54.0111 16.0102 54.9226 15.0987 56.0742 14.4163L55.0546 12.6957C53.6142 13.5493 52.4616 14.7018 51.6081 16.1422L53.3287 17.1618ZM56.0673 14.4203C57.2312 13.7432 58.4971 13.404 59.8844 13.404V11.404C58.1517 11.404 56.5376 11.8328 55.0615 12.6917L56.0673 14.4203ZM59.8844 13.404C61.2062 13.404 62.4704 13.7581 63.6921 14.4868L64.7167 12.7692C63.2024 11.8659 61.5865 11.404 59.8844 11.404V13.404ZM63.7033 14.4934C64.9182 15.1968 65.7813 16.1019 66.3339 17.2072L68.1228 16.3128C67.3794 14.8261 66.2266 13.6432 64.7054 12.7626L63.7033 14.4934ZM68.2284 16.76V2H66.2284V16.76H68.2284ZM67.2284 3H68.3804V0.999998H67.2284V3ZM67.3804 2V29H69.3804V2H67.3804ZM68.3804 28H67.2284V30H68.3804V28ZM68.2284 29V25.076H66.2284V29H68.2284ZM66.3542 24.5904C65.7278 25.7178 64.8177 26.6349 63.5953 27.3426L64.5974 29.0734C66.1111 28.1971 67.2889 27.0262 68.1025 25.5616L66.3542 24.5904ZM63.5887 27.3465C62.388 28.054 61.158 28.396 59.8844 28.396V30.396C61.5387 30.396 63.1167 29.946 64.6041 29.0695L63.5887 27.3465ZM59.8484 29.388C61.3475 29.388 62.7485 29.0038 64.0322 28.2391L63.0086 26.5209C62.0362 27.1002 60.9892 27.388 59.8484 27.388V29.388ZM64.0375 28.2359C65.3263 27.4572 66.3573 26.4285 67.1155 25.1558L65.3973 24.1322C64.8115 25.1155 64.0184 25.9108 63.0033 26.5241L64.0375 28.2359ZM67.1123 25.1611C67.9006 23.8563 68.3004 22.442 68.3004 20.936H66.3004C66.3004 22.07 66.0041 23.1277 65.4005 24.1269L67.1123 25.1611ZM68.3004 20.936C68.3004 19.43 67.9006 18.0157 67.1123 16.7109L65.4005 17.7451C66.0041 18.7443 66.3004 19.802 66.3004 20.936H68.3004ZM67.1202 16.7241C66.3631 15.4262 65.3313 14.3818 64.0375 13.6001L63.0033 15.3119C64.0135 15.9222 64.8057 16.7257 65.3926 17.7319L67.1202 16.7241ZM64.0455 13.605C62.7603 12.812 61.3546 12.412 59.8484 12.412V14.412C60.9821 14.412 62.0244 14.708 62.9953 15.307L64.0455 13.605ZM59.8484 12.412C58.3421 12.412 56.9364 12.812 55.6513 13.605L56.7015 15.307C57.6723 14.708 58.7146 14.412 59.8484 14.412V12.412ZM55.6646 13.5969C54.3887 14.357 53.3685 15.3922 52.6126 16.6881L54.3402 17.6959C54.9282 16.6878 55.7081 15.899 56.6882 15.3151L55.6646 13.5969ZM52.6126 16.6881C51.8524 17.9914 51.4684 19.401 51.4684 20.9H53.4684C53.4684 19.759 53.7564 18.6966 54.3402 17.6959L52.6126 16.6881ZM51.4684 20.9C51.4684 22.4127 51.8351 23.83 52.5688 25.1343L54.312 24.1537C53.7496 23.154 53.4684 22.0753 53.4684 20.9H51.4684ZM52.5813 25.1558C53.3365 26.4235 54.3516 27.4513 55.6153 28.231L56.6655 26.529C55.6731 25.9167 54.8883 25.1205 54.2995 24.1322L52.5813 25.1558ZM55.6365 28.2438C56.9398 29.004 58.3494 29.388 59.8484 29.388V27.388C58.7073 27.388 57.645 27.1 56.6442 26.5162L55.6365 28.2438ZM84.3723 27.452L83.8741 26.5849L83.8741 26.5849L84.3723 27.452ZM87.1803 24.788H88.1803V21.4557L86.3455 24.2374L87.1803 24.788ZM87.1803 26.624L87.9226 27.294L88.1803 27.0085V26.624H87.1803ZM84.2643 28.784L84.6429 29.7095L84.6518 29.7059L84.6607 29.7021L84.2643 28.784ZM76.4523 28.244L75.9308 29.0973L75.9378 29.1015L76.4523 28.244ZM73.3203 25.076L72.4558 25.5789L72.4628 25.5905L73.3203 25.076ZM73.3203 16.544L74.1763 17.0609L74.1805 17.0538L73.3203 16.544ZM76.4523 13.52L75.98 12.6385L75.9734 12.6421L76.4523 13.52ZM87.2883 15.392L87.9908 16.1036L88.6666 15.4364L88.0352 14.7271L87.2883 15.392ZM75.9843 26.552L75.2817 25.8404L74.4903 26.6217L75.351 27.326L75.9843 26.552ZM78.2883 27.992L77.9015 28.9142L77.9143 28.9196L77.9273 28.9246L78.2883 27.992ZM75.3003 25.868L74.5688 26.5499L75.2726 27.3049L76.0049 26.5775L75.3003 25.868ZM85.8483 15.392L86.5529 16.1015L87.3123 15.3473L86.5084 14.6408L85.8483 15.392ZM83.5443 13.916L83.1575 14.8382L83.1703 14.8436L83.1833 14.8486L83.5443 13.916ZM76.9563 14.42L77.4403 15.2951L77.4465 15.2916L76.9563 14.42ZM80.8083 29.424C82.2386 29.424 83.5975 29.0503 84.8704 28.3191L83.8741 26.5849C82.891 27.1497 81.8739 27.424 80.8083 27.424V29.424ZM84.8704 28.3191C86.1391 27.5903 87.1885 26.5917 88.015 25.3386L86.3455 24.2374C85.684 25.2403 84.8614 26.0177 83.8741 26.5849L84.8704 28.3191ZM86.1803 24.788V26.624H88.1803V24.788H86.1803ZM86.4379 25.954C85.6314 26.8476 84.7734 27.4749 83.8678 27.8659L84.6607 29.7021C85.8671 29.1811 86.9531 28.3684 87.9226 27.294L86.4379 25.954ZM83.8856 27.8585C82.9692 28.2334 81.9011 28.432 80.6643 28.432V30.432C82.1154 30.432 83.4473 30.1986 84.6429 29.7095L83.8856 27.8585ZM80.6643 28.432C79.3639 28.432 78.137 28.0886 76.9667 27.3865L75.9378 29.1015C77.4075 29.9834 78.9886 30.432 80.6643 30.432V28.432ZM76.9737 27.3907C75.8173 26.6841 74.8879 25.7451 74.1777 24.5615L72.4628 25.5905C73.3366 27.0469 74.4952 28.2199 75.9308 29.0973L76.9737 27.3907ZM74.1846 24.5731C73.503 23.4016 73.1683 22.1705 73.1683 20.864H71.1683C71.1683 22.5335 71.6015 24.1104 72.4559 25.5789L74.1846 24.5731ZM73.1683 20.864C73.1683 19.4227 73.5102 18.1641 74.1763 17.0609L72.4642 16.0271C71.5943 17.4679 71.1683 19.0893 71.1683 20.864H73.1683ZM74.1805 17.0538C74.857 15.9123 75.7694 15.0316 76.9311 14.3979L75.9734 12.6421C74.4951 13.4484 73.3195 14.5837 72.46 16.0342L74.1805 17.0538ZM76.9245 14.4015C78.1131 13.7647 79.4371 13.44 80.9163 13.44V11.44C79.1314 11.44 77.4794 11.8353 75.98 12.6385L76.9245 14.4015ZM80.9163 13.44C83.1094 13.44 84.9671 14.2886 86.5413 16.0569L88.0352 14.7271C86.1054 12.5594 83.7151 11.44 80.9163 11.44V13.44ZM86.5857 14.6804L75.2817 25.8404L76.6868 27.2636L87.9908 16.1036L86.5857 14.6804ZM75.351 27.326C76.1986 28.0195 77.0485 28.5565 77.9015 28.9142L78.675 27.0698C78.04 26.8035 77.3539 26.3805 76.6175 25.778L75.351 27.326ZM77.9273 28.9246C78.8045 29.2641 79.7698 29.424 80.8083 29.424V27.424C79.9747 27.424 79.26 27.2959 78.6492 27.0594L77.9273 28.9246ZM72.3203 20.756C72.3203 22.993 73.0707 24.9429 74.5688 26.5499L76.0317 25.1861C74.8898 23.9611 74.3203 22.503 74.3203 20.756H72.3203ZM76.0049 26.5775L86.5529 16.1015L85.1436 14.6825L74.5956 25.1585L76.0049 26.5775ZM86.5084 14.6408C85.6549 13.8908 84.7878 13.325 83.9052 12.9834L83.1833 14.8486C83.7887 15.083 84.4577 15.5012 85.1881 16.1432L86.5084 14.6408ZM83.931 12.9938C83.0355 12.6183 82.0095 12.448 80.8803 12.448V14.448C81.815 14.448 82.565 14.5897 83.1575 14.8382L83.931 12.9938ZM80.8803 12.448C79.2634 12.448 77.7833 12.8074 76.466 13.5484L77.4465 15.2916C78.4332 14.7366 79.5691 14.448 80.8803 14.448V12.448ZM76.4722 13.545C75.1884 14.2551 74.1693 15.246 73.4298 16.5058L75.1547 17.5182C75.7112 16.57 76.4681 15.8329 77.4403 15.295L76.4722 13.545ZM73.4298 16.5058C72.684 17.7766 72.3203 19.2021 72.3203 20.756H74.3203C74.3203 19.5259 74.6045 18.4554 75.1547 17.5182L73.4298 16.5058ZM90.8891 12.8V11.8H89.8891V12.8H90.8891ZM92.0411 12.8H93.0411V11.8H92.0411V12.8ZM92.0411 16.4H91.0411L92.9564 16.8027L92.0411 16.4ZM94.7411 13.52L95.2337 14.3903L95.2399 14.3868L95.246 14.3832L94.7411 13.52ZM103.669 14.312L102.928 14.9833L102.935 14.9906L102.941 14.9978L103.669 14.312ZM105.433 29V30H106.433V29H105.433ZM104.281 29H103.281V30H104.281V29ZM102.841 15.032L102.085 15.687L102.094 15.6964L102.841 15.032ZM95.4251 14.276L95.8968 15.1578L95.9039 15.1539L95.4251 14.276ZM92.9411 16.58L92.0966 16.0445L92.0919 16.0519L92.0873 16.0594L92.9411 16.58ZM92.0411 29V30H93.0411V29H92.0411ZM90.8891 29H89.8891V30H90.8891V29ZM90.8891 13.8H92.0411V11.8H90.8891V13.8ZM91.0411 12.8V16.4H93.0411V12.8H91.0411ZM92.9564 16.8027C93.3877 15.8226 94.1267 15.0169 95.2337 14.3903L94.2485 12.6497C92.8115 13.4631 91.7505 14.5774 91.1258 15.9973L92.9564 16.8027ZM95.246 14.3832C96.3582 13.7327 97.5867 13.404 98.9531 13.404V11.404C97.2475 11.404 95.668 11.8193 94.2362 12.6568L95.246 14.3832ZM98.9531 13.404C100.713 13.404 101.997 13.9549 102.928 14.9833L104.41 13.6407C103.038 12.1251 101.178 11.404 98.9531 11.404V13.404ZM102.941 14.9978C103.893 16.0077 104.433 17.4842 104.433 19.568H106.433C106.433 17.1398 105.797 15.1123 104.397 13.6262L102.941 14.9978ZM104.433 19.568V29H106.433V19.568H104.433ZM105.433 28H104.281V30H105.433V28ZM105.281 29V19.568H103.281V29H105.281ZM105.281 19.568C105.281 17.4647 104.76 15.6859 103.589 14.3676L102.094 15.6964C102.842 16.5381 103.281 17.7833 103.281 19.568H105.281ZM103.597 14.3771C102.434 13.0355 100.814 12.412 98.8811 12.412V14.412C100.356 14.412 101.376 14.8685 102.085 15.6869L103.597 14.3771ZM98.8811 12.412C97.4723 12.412 96.1547 12.7389 94.9462 13.3981L95.9039 15.1539C96.8074 14.6611 97.7939 14.412 98.8811 14.412V12.412ZM94.9534 13.3942C93.7701 14.0272 92.8134 14.9141 92.0966 16.0445L93.7856 17.1155C94.3168 16.2779 95.0161 15.6288 95.8967 15.1578L94.9534 13.3942ZM92.0873 16.0594C91.3838 17.2132 91.0411 18.5121 91.0411 19.928H93.0411C93.0411 18.8479 93.2984 17.9148 93.7949 17.1006L92.0873 16.0594ZM91.0411 19.928V29H93.0411V19.928H91.0411ZM92.0411 28H90.8891V30H92.0411V28ZM91.8891 29V12.8H89.8891V29H91.8891ZM115.775 29.216V30.216H116.775V29.216H115.775ZM111.347 27.596L110.663 28.3256L110.671 28.3325L111.347 27.596ZM109.619 6.284V5.284H108.619V6.284H109.619ZM110.771 6.284H111.771V5.284H110.771V6.284ZM110.771 12.8H109.771V13.8H110.771V12.8ZM115.739 12.8H116.739V11.8H115.739V12.8ZM115.739 13.808V14.808H116.739V13.808H115.739ZM110.771 13.808V12.808H109.771V13.808H110.771ZM112.175 26.876L111.477 27.5922L111.486 27.6013L111.496 27.6101L112.175 26.876ZM115.775 28.208H116.775V27.208H115.775V28.208ZM115.775 28.216C114.219 28.216 112.994 27.7505 112.023 26.8595L110.671 28.3325C112.052 29.6015 113.779 30.216 115.775 30.216V28.216ZM112.031 26.8665C111.12 26.013 110.619 24.8116 110.619 23.132H108.619C108.619 25.2444 109.269 27.019 110.663 28.3255L112.031 26.8665ZM110.619 23.132V6.284H108.619V23.132H110.619ZM109.619 7.284H110.771V5.284H109.619V7.284ZM109.771 6.284V12.8H111.771V6.284H109.771ZM110.771 13.8H115.739V11.8H110.771V13.8ZM114.739 12.8V13.808H116.739V12.8H114.739ZM115.739 12.808H110.771V14.808H115.739V12.808ZM109.771 13.808V23.132H111.771V13.808H109.771ZM109.771 23.132C109.771 24.9244 110.308 26.4531 111.477 27.5922L112.873 26.1598C112.17 25.4749 111.771 24.5076 111.771 23.132H109.771ZM111.496 27.6101C112.66 28.6869 114.111 29.208 115.775 29.208V27.208C114.559 27.208 113.61 26.8411 112.854 26.1419L111.496 27.6101ZM114.775 28.208V29.216H116.775V28.208H114.775ZM126.713 2V0.999998H125.713V2H126.713ZM127.865 2H128.865V0.999998H127.865V2ZM127.865 16.148H126.865L128.771 16.5709L127.865 16.148ZM130.421 13.484L130.923 14.349L130.928 14.3459L130.421 13.484ZM139.385 14.276L138.671 14.9762L138.678 14.9831L139.385 14.276ZM141.257 29V30H142.257V29H141.257ZM140.105 29H139.105V30H140.105V29ZM138.521 15.032L137.798 15.7229L137.806 15.7311L137.814 15.7391L138.521 15.032ZM130.961 14.24L131.443 15.1162L131.452 15.1116L131.46 15.1069L130.961 14.24ZM128.693 16.472L129.555 16.98L129.56 16.9705L128.693 16.472ZM127.865 29V30H128.865V29H127.865ZM126.713 29H125.713V30H126.713V29ZM126.713 3H127.865V0.999998H126.713V3ZM126.865 2V16.148H128.865V2H126.865ZM128.771 16.5709C129.176 15.7051 129.87 14.9598 130.923 14.349L129.92 12.619C128.573 13.4002 127.563 14.4309 126.959 15.7251L128.771 16.5709ZM130.928 14.3459C132.02 13.7036 133.083 13.404 134.129 13.404V11.404C132.68 11.404 131.27 11.8244 129.914 12.6221L130.928 14.3459ZM134.129 13.404C136.226 13.404 137.688 13.9734 138.671 14.9762L140.099 13.5758C138.635 12.0826 136.593 11.404 134.129 11.404V13.404ZM138.678 14.9831C139.688 15.9932 140.257 17.4724 140.257 19.568H142.257C142.257 17.1036 141.578 15.0548 140.092 13.5689L138.678 14.9831ZM140.257 19.568V29H142.257V19.568H140.257ZM141.257 28H140.105V30H141.257V28ZM141.105 29V19.568H139.105V29H141.105ZM141.105 19.568C141.105 17.4222 140.526 15.6223 139.228 14.3249L137.814 15.7391C138.629 16.5537 139.105 17.7778 139.105 19.568H141.105ZM139.244 14.3411C137.976 13.0137 136.221 12.412 134.129 12.412V14.412C135.83 14.412 137.003 14.8903 137.798 15.7229L139.244 14.3411ZM134.129 12.412C132.81 12.412 131.581 12.7303 130.463 13.3731L131.46 15.1069C132.262 14.6457 133.145 14.412 134.129 14.412V12.412ZM130.479 13.3638C129.357 13.9811 128.469 14.8565 127.826 15.9735L129.56 16.9705C130.022 16.1675 130.646 15.5549 131.443 15.1162L130.479 13.3638ZM127.832 15.964C127.186 17.0599 126.865 18.2684 126.865 19.568H128.865C128.865 18.6116 129.097 17.7561 129.555 16.98L127.832 15.964ZM126.865 19.568V29H128.865V19.568H126.865ZM127.865 28H126.713V30H127.865V28ZM127.713 29V2H125.713V29H127.713ZM157.251 27.452L156.753 26.5849L156.753 26.5849L157.251 27.452ZM160.059 24.788H161.059V21.4557L159.224 24.2374L160.059 24.788ZM160.059 26.624L160.802 27.294L161.059 27.0085V26.624H160.059ZM157.143 28.784L157.522 29.7095L157.531 29.7059L157.54 29.7021L157.143 28.784ZM149.331 28.244L148.81 29.0973L148.817 29.1015L149.331 28.244ZM146.199 25.076L145.335 25.5789L145.342 25.5905L146.199 25.076ZM146.199 16.544L147.055 17.0609L147.059 17.0538L146.199 16.544ZM149.331 13.52L148.859 12.6385L148.852 12.6421L149.331 13.52ZM160.167 15.392L160.87 16.1036L161.546 15.4364L160.914 14.7271L160.167 15.392ZM148.863 26.552L148.161 25.8404L147.369 26.6217L148.23 27.326L148.863 26.552ZM151.167 27.992L150.78 28.9142L150.793 28.9196L150.806 28.9246L151.167 27.992ZM148.179 25.868L147.448 26.5499L148.151 27.3049L148.884 26.5775L148.179 25.868ZM158.727 15.392L159.432 16.1015L160.191 15.3473L159.387 14.6408L158.727 15.392ZM156.423 13.916L156.036 14.8382L156.049 14.8436L156.062 14.8486L156.423 13.916ZM149.835 14.42L150.319 15.2951L150.325 15.2916L149.835 14.42ZM153.687 29.424C155.118 29.424 156.476 29.0503 157.749 28.3191L156.753 26.5849C155.77 27.1497 154.753 27.424 153.687 27.424V29.424ZM157.749 28.3191C159.018 27.5903 160.067 26.5917 160.894 25.3386L159.224 24.2374C158.563 25.2403 157.74 26.0177 156.753 26.5849L157.749 28.3191ZM159.059 24.788V26.624H161.059V24.788H159.059ZM159.317 25.954C158.51 26.8476 157.652 27.4749 156.747 27.8659L157.54 29.7021C158.746 29.1811 159.832 28.3684 160.802 27.294L159.317 25.954ZM156.765 27.8585C155.848 28.2334 154.78 28.432 153.543 28.432V30.432C154.994 30.432 156.326 30.1986 157.522 29.7095L156.765 27.8585ZM153.543 28.432C152.243 28.432 151.016 28.0886 149.846 27.3865L148.817 29.1015C150.286 29.9834 151.867 30.432 153.543 30.432V28.432ZM149.853 27.3907C148.696 26.6841 147.767 25.7451 147.057 24.5615L145.342 25.5905C146.216 27.0469 147.374 28.2199 148.81 29.0973L149.853 27.3907ZM147.064 24.5731C146.382 23.4016 146.047 22.1705 146.047 20.864H144.047C144.047 22.5335 144.48 24.1104 145.335 25.5789L147.064 24.5731ZM146.047 20.864C146.047 19.4227 146.389 18.1641 147.055 17.0609L145.343 16.0271C144.473 17.4679 144.047 19.0893 144.047 20.864H146.047ZM147.059 17.0538C147.736 15.9123 148.648 15.0316 149.81 14.3979L148.852 12.6421C147.374 13.4484 146.198 14.5837 145.339 16.0342L147.059 17.0538ZM149.803 14.4015C150.992 13.7647 152.316 13.44 153.795 13.44V11.44C152.01 11.44 150.358 11.8353 148.859 12.6385L149.803 14.4015ZM153.795 13.44C155.988 13.44 157.846 14.2886 159.42 16.0569L160.914 14.7271C158.984 12.5594 156.594 11.44 153.795 11.44V13.44ZM159.465 14.6804L148.161 25.8404L149.566 27.2636L160.87 16.1036L159.465 14.6804ZM148.23 27.326C149.078 28.0195 149.927 28.5565 150.78 28.9142L151.554 27.0698C150.919 26.8035 150.233 26.3805 149.496 25.778L148.23 27.326ZM150.806 28.9246C151.683 29.2641 152.649 29.424 153.687 29.424V27.424C152.854 27.424 152.139 27.2959 151.528 27.0594L150.806 28.9246ZM145.199 20.756C145.199 22.993 145.95 24.9429 147.448 26.5499L148.911 25.1861C147.769 23.9611 147.199 22.503 147.199 20.756H145.199ZM148.884 26.5775L159.432 16.1015L158.022 14.6825L147.474 25.1585L148.884 26.5775ZM159.387 14.6408C158.534 13.8908 157.667 13.325 156.784 12.9834L156.062 14.8486C156.668 15.083 157.337 15.5012 158.067 16.1432L159.387 14.6408ZM156.81 12.9938C155.914 12.6183 154.888 12.448 153.759 12.448V14.448C154.694 14.448 155.444 14.5897 156.036 14.8382L156.81 12.9938ZM153.759 12.448C152.142 12.448 150.662 12.8074 149.345 13.5484L150.325 15.2916C151.312 14.7366 152.448 14.448 153.759 14.448V12.448ZM149.351 13.545C148.067 14.2551 147.048 15.246 146.309 16.5058L148.034 17.5182C148.59 16.57 149.347 15.8329 150.319 15.295L149.351 13.545ZM146.309 16.5058C145.563 17.7766 145.199 19.2021 145.199 20.756H147.199C147.199 19.5259 147.483 18.4554 148.034 17.5182L146.309 16.5058ZM169.924 29.324V30.324H170.924V29.324H169.924ZM166.828 28.568L166.337 29.439L166.345 29.4438L166.354 29.4485L166.828 28.568ZM164.596 26.372L165.457 25.864L165.457 25.864L164.596 26.372ZM163.768 2V0.999998H162.768V2H163.768ZM164.92 2H165.92V0.999998H164.92V2ZM165.568 25.832L164.696 26.3223L164.702 26.3325L164.708 26.3425L165.568 25.832ZM167.404 27.668L166.893 28.5279L166.904 28.5338L166.914 28.5396L167.404 27.668ZM169.924 28.316H170.924V27.316H169.924V28.316ZM169.924 28.324C168.951 28.324 168.083 28.1083 167.302 27.6875L166.354 29.4485C167.445 30.0357 168.641 30.324 169.924 30.324V28.324ZM167.319 27.697C166.538 27.2564 165.921 26.6504 165.457 25.864L163.735 26.88C164.375 27.9656 165.246 28.8236 166.337 29.439L167.319 27.697ZM165.457 25.864C165.002 25.0913 164.768 24.2245 164.768 23.24H162.768C162.768 24.5595 163.086 25.7807 163.735 26.88L165.457 25.864ZM164.768 23.24V2H162.768V23.24H164.768ZM163.768 3H164.92V0.999998H163.768V3ZM163.92 2V23.24H165.92V2H163.92ZM163.92 23.24C163.92 24.3559 164.173 25.3914 164.696 26.3223L166.44 25.3417C166.099 24.7366 165.92 24.0441 165.92 23.24H163.92ZM164.708 26.3425C165.25 27.2544 165.982 27.9865 166.893 28.5279L167.915 26.8081C167.29 26.4375 166.798 25.9456 166.428 25.3215L164.708 26.3425ZM166.914 28.5396C167.837 29.0588 168.847 29.316 169.924 29.316V27.316C169.177 27.316 168.507 27.1412 167.894 26.7964L166.914 28.5396ZM168.924 28.316V29.324H170.924V28.316H168.924ZM173.647 12.8V11.8H172.647V12.8H173.647ZM174.799 12.8H175.799V11.8H174.799V12.8ZM174.799 16.76H173.799L175.693 17.2072L174.799 16.76ZM177.823 13.628L178.324 14.4935L178.335 14.4868L177.823 13.628ZM186.427 13.556L185.917 14.4163L185.924 14.4203L186.427 13.556ZM189.559 16.652L188.699 17.1618L188.699 17.1618L189.559 16.652ZM189.559 25.148L188.699 24.6382L188.699 24.6382L189.559 25.148ZM186.427 28.244L185.924 27.3796L185.917 27.3837L186.427 28.244ZM177.895 28.208L177.387 29.0696L177.394 29.0734L177.895 28.208ZM174.799 25.076L175.673 24.5904L173.799 21.2169V25.076H174.799ZM174.799 36.2V37.2H175.799V36.2H174.799ZM173.647 36.2H172.647V37.2H173.647V36.2ZM185.887 27.38L186.399 28.2391L186.405 28.2351L186.412 28.231L185.887 27.38ZM188.551 24.644L187.687 24.1401L187.684 24.1459L188.551 24.644ZM188.551 17.192L189.415 16.6881L189.415 16.6881L188.551 17.192ZM185.851 14.456L185.326 15.307L185.332 15.3111L185.339 15.3151L185.851 14.456ZM178.471 14.456L177.954 13.6L177.946 13.605L178.471 14.456ZM175.735 17.228L174.879 16.7109L174.875 16.7175L174.871 16.7241L175.735 17.228ZM175.735 24.644L174.871 25.1479L174.877 25.1586L174.884 25.1691L175.735 24.644ZM178.507 27.38L177.99 28.2359L177.996 28.2399L178.003 28.2438L178.507 27.38ZM173.647 13.8H174.799V11.8H173.647V13.8ZM173.799 12.8V16.76H175.799V12.8H173.799ZM175.693 17.2072C176.246 16.1019 177.109 15.1968 178.324 14.4934L177.322 12.7626C175.801 13.6432 174.648 14.8261 173.904 16.3128L175.693 17.2072ZM178.335 14.4868C179.557 13.7581 180.821 13.404 182.143 13.404V11.404C180.441 11.404 178.825 11.8659 177.311 12.7692L178.335 14.4868ZM182.143 13.404C183.53 13.404 184.781 13.7431 185.917 14.4163L186.937 12.6957C185.481 11.8329 183.876 11.404 182.143 11.404V13.404ZM185.924 14.4203C187.099 15.1038 188.019 16.0146 188.699 17.1618L190.419 16.1422C189.563 14.6974 188.395 13.5442 186.93 12.6917L185.924 14.4203ZM188.699 17.1618C189.373 18.3003 189.711 19.5397 189.711 20.9H191.711C191.711 19.1883 191.281 17.5957 190.419 16.1422L188.699 17.1618ZM189.711 20.9C189.711 22.2603 189.373 23.4997 188.699 24.6382L190.419 25.6578C191.281 24.2043 191.711 22.6117 191.711 20.9H189.711ZM188.699 24.6382C188.019 25.7854 187.099 26.6962 185.924 27.3797L186.93 29.1083C188.395 28.2558 189.563 27.1026 190.419 25.6578L188.699 24.6382ZM185.917 27.3837C184.781 28.0569 183.53 28.396 182.143 28.396V30.396C183.876 30.396 185.481 29.9671 186.937 29.1043L185.917 27.3837ZM182.143 28.396C180.869 28.396 179.624 28.0537 178.396 27.3426L177.394 29.0734C178.902 29.9463 180.489 30.396 182.143 30.396V28.396ZM178.403 27.3465C177.204 26.64 176.302 25.7224 175.673 24.5904L173.925 25.5616C174.736 27.0216 175.898 28.192 177.387 29.0695L178.403 27.3465ZM173.799 25.076V36.2H175.799V25.076H173.799ZM174.799 35.2H173.647V37.2H174.799V35.2ZM174.647 36.2V12.8H172.647V36.2H174.647ZM182.215 29.388C183.714 29.388 185.115 29.0038 186.399 28.2391L185.375 26.5209C184.403 27.1002 183.356 27.388 182.215 27.388V29.388ZM186.412 28.231C187.679 27.4494 188.686 26.4172 189.418 25.1421L187.684 24.1459C187.12 25.1268 186.351 25.9186 185.362 26.529L186.412 28.231ZM189.415 25.1479C190.177 23.8417 190.559 22.4196 190.559 20.9H188.559C188.559 22.0684 188.269 23.1423 187.687 24.1401L189.415 25.1479ZM190.559 20.9C190.559 19.401 190.175 17.9914 189.415 16.6881L187.687 17.6959C188.271 18.6966 188.559 19.759 188.559 20.9H190.559ZM189.415 16.6881C188.659 15.3922 187.639 14.357 186.363 13.5969L185.339 15.3151C186.319 15.899 187.099 16.6878 187.687 17.6959L189.415 16.6881ZM186.376 13.605C185.091 12.812 183.685 12.412 182.179 12.412V14.412C183.313 14.412 184.355 14.708 185.326 15.307L186.376 13.605ZM182.179 12.412C180.673 12.412 179.259 12.8118 177.954 13.6001L178.988 15.3119C179.987 14.7082 181.045 14.412 182.179 14.412V12.412ZM177.946 13.605C176.68 14.3857 175.656 15.4251 174.879 16.7109L176.591 17.7451C177.206 16.7269 178.005 15.9183 178.996 15.307L177.946 13.605ZM174.871 16.7241C174.111 18.0274 173.727 19.437 173.727 20.936H175.727C175.727 19.795 176.015 18.7326 176.599 17.7319L174.871 16.7241ZM173.727 20.936C173.727 22.435 174.111 23.8446 174.871 25.1479L176.599 24.1401C176.015 23.1394 175.727 22.077 175.727 20.936H173.727ZM174.884 25.1691C175.665 26.4345 176.704 27.4591 177.99 28.2359L179.024 26.5241C178.006 25.9089 177.197 25.1095 176.586 24.1189L174.884 25.1691ZM178.003 28.2438C179.306 29.004 180.716 29.388 182.215 29.388V27.388C181.074 27.388 180.012 27.1 179.011 26.5162L178.003 28.2438ZM205.767 27.452L205.269 26.5849L205.269 26.5849L205.767 27.452ZM208.575 24.788H209.575V21.4557L207.74 24.2374L208.575 24.788ZM208.575 26.624L209.317 27.294L209.575 27.0085V26.624H208.575ZM205.659 28.784L206.037 29.7095L206.046 29.7059L206.055 29.7021L205.659 28.784ZM197.847 28.244L197.325 29.0973L197.332 29.1015L197.847 28.244ZM194.715 25.076L193.85 25.5789L193.857 25.5905L194.715 25.076ZM194.715 16.544L195.571 17.0609L195.575 17.0538L194.715 16.544ZM197.847 13.52L197.375 12.6385L197.368 12.6421L197.847 13.52ZM208.683 15.392L209.385 16.1036L210.061 15.4364L209.43 14.7271L208.683 15.392ZM197.379 26.552L196.676 25.8404L195.885 26.6217L196.746 27.326L197.379 26.552ZM199.683 27.992L199.296 28.9142L199.309 28.9196L199.322 28.9246L199.683 27.992ZM196.695 25.868L195.963 26.5499L196.667 27.3049L197.399 26.5775L196.695 25.868ZM207.243 15.392L207.947 16.1015L208.707 15.3473L207.903 14.6408L207.243 15.392ZM204.939 13.916L204.552 14.8382L204.565 14.8436L204.578 14.8486L204.939 13.916ZM198.351 14.42L198.835 15.2951L198.841 15.2916L198.351 14.42ZM202.203 29.424C203.633 29.424 204.992 29.0503 206.265 28.3191L205.269 26.5849C204.286 27.1497 203.268 27.424 202.203 27.424V29.424ZM206.265 28.3191C207.534 27.5903 208.583 26.5917 209.41 25.3386L207.74 24.2374C207.079 25.2403 206.256 26.0177 205.269 26.5849L206.265 28.3191ZM207.575 24.788V26.624H209.575V24.788H207.575ZM207.832 25.954C207.026 26.8476 206.168 27.4749 205.262 27.8659L206.055 29.7021C207.262 29.1811 208.348 28.3684 209.317 27.294L207.832 25.954ZM205.28 27.8585C204.364 28.2334 203.296 28.432 202.059 28.432V30.432C203.51 30.432 204.842 30.1986 206.037 29.7095L205.28 27.8585ZM202.059 28.432C200.758 28.432 199.531 28.0886 198.361 27.3865L197.332 29.1015C198.802 29.9834 200.383 30.432 202.059 30.432V28.432ZM198.368 27.3907C197.212 26.6841 196.282 25.7451 195.572 24.5615L193.857 25.5905C194.731 27.0469 195.89 28.2199 197.325 29.0973L198.368 27.3907ZM195.579 24.5731C194.898 23.4016 194.563 22.1705 194.563 20.864H192.563C192.563 22.5335 192.996 24.1104 193.85 25.5789L195.579 24.5731ZM194.563 20.864C194.563 19.4227 194.905 18.1641 195.571 17.0609L193.859 16.0271C192.989 17.4679 192.563 19.0893 192.563 20.864H194.563ZM195.575 17.0538C196.252 15.9123 197.164 15.0316 198.326 14.3979L197.368 12.6421C195.89 13.4484 194.714 14.5837 193.854 16.0342L195.575 17.0538ZM198.319 14.4015C199.508 13.7647 200.832 13.44 202.311 13.44V11.44C200.526 11.44 198.874 11.8353 197.375 12.6385L198.319 14.4015ZM202.311 13.44C204.504 13.44 206.362 14.2886 207.936 16.0569L209.43 14.7271C207.5 12.5594 205.11 11.44 202.311 11.44V13.44ZM207.98 14.6804L196.676 25.8404L198.081 27.2636L209.385 16.1036L207.98 14.6804ZM196.746 27.326C197.593 28.0195 198.443 28.5565 199.296 28.9142L200.07 27.0698C199.434 26.8035 198.748 26.3805 198.012 25.778L196.746 27.326ZM199.322 28.9246C200.199 29.2641 201.164 29.424 202.203 29.424V27.424C201.369 27.424 200.655 27.2959 200.044 27.0594L199.322 28.9246ZM193.715 20.756C193.715 22.993 194.465 24.9429 195.963 26.5499L197.426 25.1861C196.284 23.9611 195.715 22.503 195.715 20.756H193.715ZM197.399 26.5775L207.947 16.1015L206.538 14.6825L195.99 25.1585L197.399 26.5775ZM207.903 14.6408C207.049 13.8908 206.182 13.325 205.3 12.9834L204.578 14.8486C205.183 15.083 205.852 15.5012 206.583 16.1432L207.903 14.6408ZM205.326 12.9938C204.43 12.6183 203.404 12.448 202.275 12.448V14.448C203.21 14.448 203.96 14.5897 204.552 14.8382L205.326 12.9938ZM202.275 12.448C200.658 12.448 199.178 12.8074 197.861 13.5484L198.841 15.2916C199.828 14.7366 200.964 14.448 202.275 14.448V12.448ZM197.867 13.545C196.583 14.2551 195.564 15.246 194.824 16.5058L196.549 17.5182C197.106 16.57 197.863 15.8329 198.835 15.295L197.867 13.545ZM194.824 16.5058C194.078 17.7766 193.715 19.2021 193.715 20.756H195.715C195.715 19.5259 195.999 18.4554 196.549 17.5182L194.824 16.5058ZM212.284 12.8V11.8H211.284V12.8H212.284ZM213.436 12.8H214.436V11.8H213.436V12.8ZM213.436 16.544H212.436L214.361 16.9219L213.436 16.544ZM215.524 13.772L214.94 12.9596L214.93 12.9669L215.524 13.772ZM220.96 13.232H221.96V12.5589L221.336 12.3055L220.96 13.232ZM220.96 14.564L220.355 15.3607L221.96 16.5778V14.564H220.96ZM216.1 14.564L215.556 13.7244L215.545 13.7319L216.1 14.564ZM214.156 16.688L213.286 16.1944L213.281 16.2034L213.276 16.2125L214.156 16.688ZM213.436 29V30H214.436V29H213.436ZM212.284 29H211.284V30H212.284V29ZM212.284 13.8H213.436V11.8H212.284V13.8ZM212.436 12.8V16.544H214.436V12.8H212.436ZM214.361 16.9219C214.781 15.895 215.37 15.1271 216.117 14.5771L214.93 12.9669C213.853 13.7609 213.051 14.841 212.51 16.1661L214.361 16.9219ZM216.107 14.5843C216.869 14.037 217.72 13.764 218.692 13.764V11.764C217.311 11.764 216.05 12.163 214.94 12.9597L216.107 14.5843ZM218.692 13.764C219.293 13.764 219.921 13.8895 220.583 14.1585L221.336 12.3055C220.462 11.9505 219.579 11.764 218.692 11.764V13.764ZM219.96 13.232V14.564H221.96V13.232H219.96ZM221.564 13.7673C220.696 13.109 219.704 12.772 218.62 12.772V14.772C219.263 14.772 219.831 14.963 220.355 15.3607L221.564 13.7673ZM218.62 12.772C217.539 12.772 216.513 13.1052 215.556 13.7244L216.643 15.4036C217.318 14.9668 217.972 14.772 218.62 14.772V12.772ZM215.545 13.7319C214.614 14.3528 213.861 15.1806 213.286 16.1944L215.025 17.1816C215.458 16.4194 216.002 15.8312 216.654 15.396L215.545 13.7319ZM213.276 16.2125C212.717 17.2463 212.436 18.3577 212.436 19.532H214.436C214.436 18.6903 214.634 17.9057 215.035 17.1635L213.276 16.2125ZM212.436 19.532V29H214.436V19.532H212.436ZM213.436 28H212.284V30H213.436V28ZM213.284 29V12.8H211.284V29H213.284Z" fill="#473F49"/>
</g>
<defs>
<filter id="filter0_d" x="0.511993" y="0.531998" width="225.448" height="44.668" filterUnits="userSpaceOnUse" color-interpolation-filters="sRGB">
<feFlood flood-opacity="0" result="BackgroundImageFix"/>
<feColorMatrix in="SourceAlpha" type="matrix" values="0 0 0 0 0 0 0 0 0 0 0 0 0 0 0 0 0 0 127 0"/>
<feOffset dy="4"/>
<feGaussianBlur stdDeviation="2"/>
<feColorMatrix type="matrix" values="0 0 0 0 0 0 0 0 0 0 0 0 0 0 0 0 0 0 0.25 0"/>
<feBlend mode="normal" in2="BackgroundImageFix" result="effect1_dropShadow"/>
<feBlend mode="normal" in="SourceGraphic" in2="effect1_dropShadow" result="shape"/>
</filter>
</defs>
</svg>
